<?xml version="1.0" encoding="utf-8"?>
<!-- Generator: Adobe Illustrator 19.0.0, SVG Export Plug-In . SVG Version: 6.00 Build 0)  -->
<svg version="1.1" id="Capa_1" xmlns="http://www.w3.org/2000/svg" xmlns:xlink="http://www.w3.org/1999/xlink" x="0px" y="0px"
	 viewBox="0 0 50 50" style="enable-background:new 0 0 50 50;" xml:space="preserve">
<style type="text/css">
	.st0{fill:#00005B;}
	.st1{fill:#9999FF;}
</style>
<path id="XMLID_13_" class="st0" d="M39.7,49.5H10.3c-5.4,0-9.8-4.4-9.8-9.8V10.3c0-5.4,4.4-9.8,9.8-9.8h29.4c5.4,0,9.8,4.4,9.8,9.8
	v29.4C49.5,45.1,45.1,49.5,39.7,49.5z"/>
<g id="XMLID_8_">
	<path id="XMLID_2_" class="st1" d="M20.7,29.1h-8l-2.1,5.4H6.6l8.4-21.1h3.5l8.4,21.1h-4.1L20.7,29.1z M16.7,18.4
		c-0.7,2.2-1.4,4.1-2,5.5L14,25.9h5.5L18.7,24C18.2,22.5,17.5,20.6,16.7,18.4L16.7,18.4z"/>
	<path id="XMLID_5_" class="st1" d="M37.3,31.9c0.7,0,1.5-0.1,2.3-0.2c0.8-0.1,1.6-0.4,2.4-0.6v3c-0.5,0.2-1.2,0.4-2.2,0.6
		s-2,0.3-3.1,0.3c-1.1,0-2.1-0.1-3.1-0.4c-1-0.3-1.8-0.7-2.6-1.4s-1.3-1.4-1.7-2.4c-0.4-1-0.6-2.2-0.6-3.6c0-1.4,0.2-2.6,0.6-3.6
		c0.4-1,0.9-1.9,1.6-2.6c0.7-0.7,1.4-1.2,2.3-1.5c0.9-0.3,1.8-0.5,2.7-0.5c1,0,1.9,0.1,2.7,0.4c0.8,0.3,1.5,0.8,2.1,1.4
		c0.6,0.6,1.1,1.4,1.4,2.4c0.3,1,0.5,2.2,0.5,3.5c0,0.5,0,1,0,1.3h-10c0.1,0.7,0.2,1.3,0.5,1.8c0.3,0.5,0.6,0.9,1,1.2
		s0.9,0.5,1.5,0.7C36,31.8,36.6,31.9,37.3,31.9z M35.8,21.7c-0.5,0-0.9,0.1-1.3,0.3s-0.7,0.4-1,0.7c-0.3,0.3-0.5,0.7-0.6,1.1
		s-0.3,0.8-0.3,1.3h6c0-0.5-0.1-0.9-0.2-1.3s-0.3-0.8-0.5-1.1c-0.2-0.3-0.5-0.5-0.9-0.7S36.2,21.7,35.8,21.7z"/>
</g>
</svg>
