<?xml version="1.0" encoding="utf-8"?>
<!-- Generator: Adobe Illustrator 19.0.0, SVG Export Plug-In . SVG Version: 6.00 Build 0)  -->
<svg version="1.1" id="Capa_1" xmlns="http://www.w3.org/2000/svg" xmlns:xlink="http://www.w3.org/1999/xlink" x="0px" y="0px"
	 viewBox="0 0 50 50" style="enable-background:new 0 0 50 50;" xml:space="preserve">
<style type="text/css">
	.st0{fill:#2561A8;}
	.st1{fill:#242021;}
	.st2{fill:#262324;}
	.st3{fill:#5A5758;}
	.st4{fill:#676465;}
	.st5{fill:#429AD0;}
	.st6{fill:#439AD0;}
	.st7{fill:#E4E3E3;}
	.st8{fill:#DFDEDE;}
	.st9{fill:#F9F8F8;}
	.st10{fill:#DBDCDD;}
	.st11{fill:#F4F3F3;}
	.st12{fill:#DEDDDD;}
	.st13{fill:#E3E1E1;}
	.st14{fill:#E6E4E4;}
	.st15{fill:#F4F4F3;}
	.st16{fill:#EBECED;}
	.st17{fill:#E5E6E7;}
	.st18{fill:#DDDFE0;}
	.st19{fill:#D5D7D9;}
	.st20{fill:#FAF9F9;}
	.st21{fill:#FDFDFD;}
	.st22{fill:#FDFDFE;}
	.st23{fill:#F7F7F7;}
</style>
<g id="XMLID_1_">
	<path id="XMLID_144_" class="st0" d="M25.2,49.5c-0.1,0-0.3,0-0.4,0c-0.1,0-0.1-0.1-0.2-0.1c-2-0.5-4-1.1-6.1-1.6
		c-2.5-0.7-5-1.3-7.5-2c-0.1,0-0.3,0-0.3-0.3c-0.1-1-0.2-1.9-0.3-2.8c-0.2-1.9-0.4-3.8-0.5-5.8C9.8,35,9.6,33,9.4,31.1
		c-0.2-1.9-0.4-3.8-0.5-5.8c-0.2-2.2-0.4-4.3-0.6-6.5c-0.2-2.2-0.4-4.4-0.6-6.6c-0.1-0.7-0.1-1.4-0.2-2.1c11.7,0,23.3,0,35,0
		c-0.1,0.7-0.1,1.4-0.2,2.1c-0.2,2.4-0.4,4.8-0.7,7.1c-0.2,2.2-0.4,4.3-0.6,6.5c-0.2,2.2-0.4,4.4-0.6,6.5c-0.2,2.1-0.4,4.3-0.6,6.4
		c-0.2,2.2-0.4,4.3-0.6,6.5c0,0.2-0.1,0.3-0.3,0.4c-3.8,1-7.5,2-11.3,3C26.8,49,26,49.3,25.2,49.5z M22.5,23c-0.7,0.3-1.4,0.6-2,0.8
		c-0.7,0.3-1.3,0.6-2,0.8c-0.6,0.2-1.1,0.5-1.7,0.7c-0.6,0.3-1.2,0.5-1.9,0.8c0,0.1-0.1,0.2-0.1,0.3c0.1,1,0.1,1.9,0.2,2.9
		c0,0.4,0.1,0.7,0.1,1.1c1.1,0,2.2,0,3.3,0c1.2,0,2.3,0,3.5,0c1,0,2,0,3,0l0,0c0,2.3,0,4.6,0,7c-0.1,0-0.2,0-0.3-0.1
		c-1.4-0.3-2.8-0.7-4.2-1c-0.1,0-0.3-0.2-0.3-0.3c-0.1-0.5-0.1-1-0.1-1.6c0-0.6-0.1-1.1-0.1-1.7c-0.2,0-0.4,0-0.5,0
		c-1.3,0-2.6,0-3.9,0c0,0.2,0,0.3,0,0.4c0.1,0.9,0.2,1.9,0.2,2.8c0.1,1.1,0.2,2.1,0.3,3.2c0,0.1,0.1,0.3,0.2,0.3
		c1,0.3,2.1,0.6,3.1,0.9c0.4,0.1,0.9,0.3,1.3,0.4c1.4,0.4,2.9,0.8,4.3,1.3c0,0,0,0,0,0c0,1.5,0,2.9,0,4.4c0.2,0,0.3-0.1,0.4-0.1
		c2.6-0.7,5.2-1.4,7.8-2.1c1-0.3,2-0.5,3-0.8c0.1,0,0.3-0.1,0.3-0.2c0.1-0.5,0.1-0.9,0.1-1.4c0.1-0.8,0.1-1.6,0.2-2.5
		c0.1-0.9,0.2-1.8,0.2-2.7c0.1-0.8,0.1-1.6,0.2-2.4c0.1-0.9,0.2-1.7,0.2-2.6c0.1-0.8,0.1-1.6,0.2-2.4c0.1-0.9,0.2-1.7,0.2-2.6
		c0.1-0.8,0.1-1.6,0.2-2.4c0.1-0.9,0.2-1.8,0.2-2.7c0.1-0.8,0.1-1.6,0.2-2.4c0.1-1.1,0.2-2.2,0.3-3.3c0.1-0.9,0.1-1.7,0.2-2.6
		c0-0.3,0-0.4-0.3-0.4c-4.5,0-9,0-13.5,0C25,13,25,13.1,25,13.4c0,1.3,0,2.6,0,4c-0.4,0-0.8,0-1.2,0c-1.7,0-3.5,0-5.2,0
		c-1.5,0-3.1,0-4.7,0c0.2,1.4,0.4,2.9,0.5,4.3c1.4,0,2.8,0,4.1,0c0.1,0,0.3,0,0.4,0c2,0,4,0,6,0c0,0,0,0,0.1,0.1
		c0,0.1,0,0.1-0.1,0.2C24.1,22.3,23.3,22.6,22.5,23z"/>
	<path id="XMLID_142_" class="st1" d="M33.3,2.9c0.6,0.6,1.3,1.2,1.9,1.9c0.1,0.1,0.2,0.2,0.2,0.3c0,0.6,0,1.3,0,2
		c-1.8,0-3.6,0-5.4,0c0-0.7,0-1.4,0-2.1c0.7,0,1.3,0,2.1,0c-0.1-0.1-0.1-0.2-0.2-0.2c-0.6-0.6-1.2-1.1-1.7-1.7C30,2.9,30,2.7,30,2.6
		c0-0.7,0-1.4,0-2.1c0,0,0.1,0,0.1,0c0.1,0,0.2,0.1,0.3,0.1c1.6,0,3.1,0,4.7,0c0.1,0,0.2,0,0.3-0.1c0,0,0.1,0,0.1,0
		c0,0.8,0,1.5,0,2.3C34.7,2.8,34,2.8,33.3,2.9C33.3,2.8,33.3,2.8,33.3,2.9C33.3,2.9,33.3,2.9,33.3,2.9z"/>
	<path id="XMLID_141_" class="st2" d="M20.1,0.5c0,0.6,0,1.1,0,1.7c0,0.2,0,0.4,0,0.6c-1,0-2,0-3.1,0c0,0.7,0,1.4,0,2.1c1,0,2,0,3,0
		c0,0.7,0,1.4,0,2.1c-1.8,0-3.6,0-5.4,0c0-2.2,0-4.4,0-6.5C16.4,0.5,18.2,0.5,20.1,0.5z"/>
	<path id="XMLID_140_" class="st3" d="M27.7,0.5C27.7,0.5,27.7,0.5,27.7,0.5c-1.8,0.1-3.6,0.1-5.4,0.1c0,0,0,0,0-0.1
		C24.1,0.5,25.9,0.5,27.7,0.5z"/>
	<path id="XMLID_139_" class="st4" d="M35.3,0.5c-0.1,0-0.2,0.1-0.3,0.1c-1.6,0-3.1,0-4.7,0c-0.1,0-0.2,0-0.3-0.1
		C31.8,0.5,33.5,0.5,35.3,0.5z"/>
	<path id="XMLID_138_" class="st5" d="M25,17.4c0-1.3,0-2.6,0-4c0-0.3,0.1-0.4,0.4-0.4c4.5,0,9,0,13.5,0c0.3,0,0.4,0,0.3,0.4
		c-0.1,0.9-0.2,1.7-0.2,2.6c-0.1,1.1-0.2,2.2-0.3,3.3c-0.1,0.8-0.1,1.6-0.2,2.4c-0.1,0.9-0.2,1.8-0.2,2.7c-0.1,0.8-0.1,1.6-0.2,2.4
		c-0.1,0.9-0.2,1.7-0.2,2.6c-0.1,0.8-0.1,1.6-0.2,2.4c-0.1,0.9-0.2,1.7-0.2,2.6c-0.1,0.8-0.1,1.6-0.2,2.4c-0.1,0.9-0.2,1.8-0.2,2.7
		c-0.1,0.8-0.1,1.6-0.2,2.5c0,0.5-0.1,0.9-0.1,1.4c0,0.1-0.2,0.2-0.3,0.2c-1,0.3-2,0.5-3,0.8c-2.6,0.7-5.2,1.4-7.8,2.1
		c-0.1,0-0.2,0.1-0.4,0.1c0-1.5,0-2.9,0-4.4c0.9-0.3,1.7-0.5,2.6-0.8c0.6-0.2,1.3-0.4,1.9-0.6c0.9-0.3,1.8-0.5,2.8-0.8
		c0.3-0.1,0.6-0.2,0.9-0.3c0.6-0.1,0.8-0.4,0.9-1c0.1-1.8,0.3-3.6,0.5-5.4c0.1-1.6,0.3-3.2,0.4-4.8c0.1-0.8,0.1-1.5,0.2-2.3
		c-1,0-1.9,0-2.9,0c-0.9,0-1.8,0-2.8,0c-0.6,0-1.3,0-1.9,0c-0.6,0-1.2,0-1.8,0c-0.2,0-0.4,0-0.5,0c0.8-0.4,1.7-0.7,2.5-1.1
		c2-0.9,4.1-1.8,6.1-2.6c0.5-0.2,1-0.4,1.5-0.6c0.2,0,0.2-0.1,0.3-0.3c0.1-1,0.2-2,0.3-2.9c0-0.4,0.1-0.8,0.1-1.2
		c-1.3,0-2.6,0-3.9,0c-1.2,0-2.5,0-3.7,0C27.2,17.4,26.1,17.4,25,17.4C25,17.4,25,17.4,25,17.4z"/>
	<path id="XMLID_137_" class="st6" d="M25,37.4c0-2.3,0-4.6,0-7c0.8,0,1.7,0,2.5,0c0.6,0,1.3,0,1.9,0c0.3,0,0.5,0,0.8,0
		c0,0.2,0,0.3,0,0.4c-0.1,1.5-0.2,3.1-0.3,4.6c0,0.4,0,0.8-0.6,0.8c-0.6,0.2-1.2,0.3-1.8,0.5C26.7,36.9,25.8,37.1,25,37.4
		C25,37.4,25,37.4,25,37.4z"/>
	<path id="XMLID_136_" class="st7" d="M25,21.7c-2,0-4,0-6,0c-0.1,0-0.3,0-0.4,0c0-1.4,0-2.9,0-4.3c1.7,0,3.5,0,5.2,0
		c0.4,0,0.8,0,1.2,0c0,0,0,0,0,0C25,18.8,25,20.2,25,21.7C25,21.6,25,21.7,25,21.7z"/>
	<path id="XMLID_135_" class="st7" d="M24.9,42.1c-1.4-0.4-2.9-0.8-4.3-1.3c-0.4-0.1-0.9-0.3-1.3-0.4c0-0.2,0.1-0.3,0.1-0.5
		c0-2.4,0-4.8,0-7.2c0.2,0,0.3,0,0.5,0c0,0.6,0.1,1.1,0.1,1.7c0,0.5,0.1,1,0.1,1.6c0,0.1,0.2,0.3,0.3,0.3c1.4,0.4,2.8,0.7,4.2,1
		c0.1,0,0.2,0,0.3,0.1c0,0,0,0,0,0c0,0.4,0,0.7,0,1.1C25,39.7,25,40.9,24.9,42.1z"/>
	<path id="XMLID_134_" class="st8" d="M19.4,32.7c0,2.4,0,4.8,0,7.2c0,0.2,0,0.3-0.1,0.5c-1-0.3-2.1-0.6-3.1-0.9
		c-0.1,0-0.2-0.2-0.2-0.3c-0.1-1.1-0.2-2.1-0.3-3.2c-0.1-0.9-0.2-1.9-0.2-2.8c0-0.1,0-0.3,0-0.4C16.8,32.7,18.1,32.7,19.4,32.7z"/>
	<path id="XMLID_133_" class="st9" d="M35.2,21.8c-0.5,0.2-1,0.4-1.5,0.6c-0.1,0-0.2-0.1-0.4-0.1c-2.8,0-5.6,0-8.4,0
		c0-0.1,0-0.2,0-0.3c0-0.1,0-0.1,0.1-0.2c0.2,0.1,0.3,0,0.5-0.1c0,0,0.1,0.1,0.1,0.1c0.7,0,1.5-0.1,2.2-0.1c0.4,0,0.4-0.2,0.4-0.5
		c0-1.2,0-2.5,0-3.7c1.2,0,2.5,0,3.7,0c0,1.2,0,2.5,0,3.7c0,0.1,0.1,0.4,0.2,0.4c0.4,0.1,0.8,0.2,1.2,0.2c0.5,0,1,0,1.5,0
		C35,21.7,35.1,21.7,35.2,21.8z"/>
	<path id="XMLID_132_" class="st10" d="M18.6,17.4c0,1.4,0,2.9,0,4.3c-1.4,0-2.7,0-4.1,0c-0.2-1.4-0.4-2.8-0.5-4.3
		C15.5,17.4,17,17.4,18.6,17.4z"/>
	<path id="XMLID_131_" class="st11" d="M27.5,30.4c-0.8,0-1.7,0-2.5,0c0,0,0,0,0,0c0-1.3,0-2.6,0-3.9c0-0.2-0.1-0.3-0.3-0.3
		c-0.9,0-1.8,0-2.7,0c-1.2,0-2.3,0-3.5,0c-1.1,0-2.1,0-3.2,0c-0.1,0-0.2,0-0.4-0.1c0.6-0.3,1.2-0.5,1.9-0.8c0.2,0,0.3,0.1,0.5,0.1
		c2.6,0,5.1,0,7.7,0c0,0.1,0,0.2,0,0.3c0,0.1,0.1,0.2,0.1,0.4c0.2,0,0.4,0,0.5,0c0.6,0,1.2,0,1.8,0C27.5,27.6,27.5,29,27.5,30.4z"/>
	<path id="XMLID_130_" class="st12" d="M15,26.1c0.1,0,0.2,0.1,0.4,0.1c1.1,0,2.1,0,3.2,0c0,1.4,0,2.8,0,4.2c-1.1,0-2.2,0-3.3,0
		c0-0.4-0.1-0.7-0.1-1.1c-0.1-1-0.2-1.9-0.2-2.9C14.8,26.3,14.9,26.2,15,26.1z"/>
	<path id="XMLID_129_" class="st13" d="M18.5,30.4c0-1.4,0-2.8,0-4.2c1.2,0,2.3,0,3.5,0c0,1.4,0,2.8,0,4.2
		C20.8,30.4,19.6,30.4,18.5,30.4z"/>
	<path id="XMLID_128_" class="st14" d="M21.9,30.4c0-1.4,0-2.8,0-4.2c0.9,0,1.8,0,2.7,0c0.2,0,0.3,0.1,0.3,0.3c0,1.3,0,2.6,0,3.9
		C24,30.4,23,30.4,21.9,30.4z"/>
	<path id="XMLID_127_" class="st15" d="M24.9,42.1c0-1.2,0-2.4,0-3.6c0-0.4,0-0.7,0-1.1c0.9-0.2,1.7-0.5,2.6-0.7c0,1.5,0,3.1,0,4.6
		C26.7,41.6,25.8,41.8,24.9,42.1C25,42.1,25,42.1,24.9,42.1z"/>
	<path id="XMLID_126_" class="st16" d="M25,25.4c-2.6,0-5.1,0-7.7,0c-0.2,0-0.3,0-0.5-0.1c0.6-0.2,1.1-0.5,1.7-0.7
		c0.1,0,0.3,0.1,0.4,0.1c2,0,4.1,0,6.1,0C25,24.9,25,25.2,25,25.4z"/>
	<path id="XMLID_125_" class="st17" d="M25,24.7c-2,0-4.1,0-6.1,0c-0.1,0-0.3,0-0.4-0.1c0.7-0.3,1.3-0.6,2-0.8
		c0.1,0,0.2,0.1,0.4,0.1c1.4,0,2.7,0,4.1,0C25,24.2,25,24.4,25,24.7z"/>
	<path id="XMLID_124_" class="st18" d="M25,23.9c-1.4,0-2.7,0-4.1,0c-0.1,0-0.2-0.1-0.4-0.1c0.7-0.3,1.4-0.6,2-0.8
		c0.1,0,0.2,0.1,0.3,0.1c0.7,0,1.4,0,2.1,0C25,23.4,25,23.6,25,23.9z"/>
	<path id="XMLID_123_" class="st19" d="M25,23.1c-0.7,0-1.4,0-2.1,0c-0.1,0-0.2-0.1-0.3-0.1c0.8-0.3,1.6-0.7,2.4-1
		c0,0.1,0,0.2,0,0.3C25,22.5,25,22.8,25,23.1z"/>
	<path id="XMLID_122_" class="st10" d="M25.5,21.7c-0.2,0.1-0.3,0.2-0.5,0.1c0,0,0,0-0.1-0.1c0,0,0,0,0-0.1
		C25.2,21.7,25.3,21.7,25.5,21.7z"/>
	<path id="XMLID_121_" class="st1" d="M22.3,0.6c1.8,0,3.6,0,5.4,0c0,0.7,0,1.5,0,2.3c-0.7,0-1.4,0-2,0c0,0,0,0,0,0.1
		c0.3,0.3,0.5,0.5,0.8,0.8c0.4,0.4,0.8,0.8,1.2,1.2C27.7,4.9,27.7,5,27.7,5c0,0.7,0,1.3,0,2c-1.8,0-3.6,0-5.4,0c0-0.7,0-1.4,0-2.1
		c0.7,0,1.3,0,2.1,0c-0.1-0.1-0.1-0.2-0.2-0.2c-0.6-0.6-1.1-1.1-1.7-1.7c-0.1-0.1-0.2-0.3-0.2-0.4C22.3,1.9,22.3,1.2,22.3,0.6z"/>
	<path id="XMLID_120_" class="st4" d="M33.3,2.9C33.3,2.9,33.3,2.9,33.3,2.9C33.3,2.8,33.3,2.8,33.3,2.9C33.3,2.9,33.3,2.9,33.3,2.9
		z"/>
	<path id="XMLID_119_" class="st20" d="M29.4,36.2c0.5,0,0.6-0.4,0.6-0.8c0.1-1.5,0.2-3.1,0.3-4.6c0-0.1,0-0.2,0-0.4
		c-0.3,0-0.5,0-0.8,0c0-1.4,0-2.8,0-4.2c0.9,0,1.8,0,2.8,0c0,4.6,0,9.2,0,13.8c-0.9,0.3-1.8,0.5-2.8,0.8c0-1.4,0-2.7,0-4.1
		C29.4,36.5,29.4,36.3,29.4,36.2z"/>
	<path id="XMLID_118_" class="st21" d="M32.2,40c0-4.6,0-9.2,0-13.8c1,0,1.9,0,2.9,0C35,27,35,27.7,34.9,28.5
		c-0.1,1.6-0.3,3.2-0.4,4.8c-0.2,1.8-0.4,3.6-0.5,5.4c0,0.7-0.3,0.9-0.9,1C32.8,39.7,32.5,39.9,32.2,40z"/>
	<path id="XMLID_117_" class="st22" d="M25,23.1c0-0.3,0-0.5,0-0.8c2.8,0,5.6,0,8.4,0c0.1,0,0.2,0.1,0.4,0.1c-2,0.9-4.1,1.8-6.1,2.6
		c-0.8,0.4-1.7,0.7-2.5,1.1c0-0.1-0.1-0.2-0.1-0.4c0-0.1,0-0.2,0-0.3c0-0.2,0-0.5,0-0.7c0-0.3,0-0.5,0-0.8C25,23.6,25,23.4,25,23.1z
		"/>
	<path id="XMLID_116_" class="st21" d="M35.2,21.8c-0.1,0-0.2-0.1-0.3-0.1c-0.5,0-1,0-1.5,0c-0.4,0-0.8-0.1-1.2-0.2
		c-0.1,0-0.2-0.3-0.2-0.4c0-1.2,0-2.5,0-3.7c1.3,0,2.5,0,3.9,0c0,0.4-0.1,0.8-0.1,1.2c-0.1,1-0.2,2-0.3,2.9
		C35.5,21.7,35.4,21.7,35.2,21.8z"/>
	<path id="XMLID_115_" class="st11" d="M25.5,21.7c-0.2,0-0.4,0-0.6-0.1c0-1.4,0-2.8,0-4.2c1.1,0,2.2,0,3.3,0c0,1.2,0,2.5,0,3.7
		c0,0.3,0,0.5-0.4,0.5c-0.7,0-1.5,0.1-2.2,0.1C25.6,21.8,25.6,21.7,25.5,21.7z"/>
	<path id="XMLID_114_" class="st23" d="M29.4,36.2c0,0.2,0.1,0.3,0.1,0.5c0,1.4,0,2.7,0,4.1c-0.6,0.2-1.3,0.4-1.9,0.6
		c0-1.5,0-3.1,0-4.6C28.2,36.5,28.8,36.3,29.4,36.2z"/>
	<path id="XMLID_113_" class="st23" d="M29.4,26.2c0,1.4,0,2.8,0,4.2c-0.6,0-1.3,0-1.9,0c0-1.4,0-2.8,0-4.2
		C28.1,26.2,28.8,26.2,29.4,26.2z"/>
</g>
</svg>
