<?xml version="1.0" encoding="utf-8"?>
<!-- Generator: Adobe Illustrator 19.0.0, SVG Export Plug-In . SVG Version: 6.00 Build 0)  -->
<svg version="1.1" id="Capa_1" xmlns="http://www.w3.org/2000/svg" xmlns:xlink="http://www.w3.org/1999/xlink" x="0px" y="0px"
	 viewBox="0 0 50 50" style="enable-background:new 0 0 50 50;" xml:space="preserve">
<style type="text/css">
	.st0{fill:#FFFFFF;}
	.st1{fill:#F7931E;}
</style>
<g id="XMLID_2_">
	<circle id="XMLID_1_" class="st0" cx="25" cy="25.5" r="24.5"/>
	<g id="XMLID_1554_">
		<g id="XMLID_131_">
			<path id="XMLID_138_" class="st1" d="M42.8,17.9c-0.2-0.3-0.5-0.4-0.8-0.4H15.6L14.4,13c-0.1-0.5-0.5-0.8-1-0.8H8
				c-0.6,0-1,0.5-1,1c0,0.6,0.5,1,1,1h4.6l1.2,4.4l0,0l4.1,15.6c0.1,0.5,0.5,0.8,1,0.8h19.1c0.5,0,0.9-0.3,1-0.8L43,18.8
				C43,18.4,43,18.1,42.8,17.9z M23.3,33.1h-3.7L18.8,30h4.5V33.1z M23.3,27.9h-5l-0.8-3.1h5.8V27.9z M23.3,22.7h-6.4l-0.8-3.1h7.2
				V22.7z M31.4,33.1h-6V30h6V33.1z M31.4,27.9h-6v-3.1h6V27.9z M31.4,22.7h-6v-3.1h6V22.7z M37.1,33.1h-3.7V30h4.5L37.1,33.1z
				 M38.5,27.9h-5v-3.1h5.8L38.5,27.9z M39.8,22.7h-6.4v-3.1h7.2L39.8,22.7z"/>
			<path id="XMLID_135_" class="st1" d="M21.6,36c-2.1,0-3.8,1.7-3.8,3.8c0,2.1,1.7,3.8,3.8,3.8c2.1,0,3.8-1.7,3.8-3.8
				C25.4,37.7,23.7,36,21.6,36z M21.6,41.5c-0.9,0-1.7-0.8-1.7-1.7c0-0.9,0.8-1.7,1.7-1.7c0.9,0,1.7,0.8,1.7,1.7
				C23.3,40.7,22.5,41.5,21.6,41.5z"/>
			<path id="XMLID_132_" class="st1" d="M35.1,36c-2.1,0-3.8,1.7-3.8,3.8c0,2.1,1.7,3.8,3.8,3.8c2.1,0,3.8-1.7,3.8-3.8
				C38.9,37.7,37.2,36,35.1,36z M35.1,41.5c-0.9,0-1.7-0.8-1.7-1.7c0-0.9,0.8-1.7,1.7-1.7c0.9,0,1.7,0.8,1.7,1.7
				C36.9,40.7,36.1,41.5,35.1,41.5z"/>
		</g>
	</g>
</g>
</svg>
