<?xml version="1.0" encoding="utf-8"?>
<!-- Generator: Adobe Illustrator 19.0.0, SVG Export Plug-In . SVG Version: 6.00 Build 0)  -->
<svg version="1.1" id="Capa_1" xmlns="http://www.w3.org/2000/svg" xmlns:xlink="http://www.w3.org/1999/xlink" x="0px" y="0px"
	 viewBox="-280 372 50 50" style="enable-background:new -280 372 50 50;" xml:space="preserve">
<style type="text/css">
	.st0{fill:#FFFFFF;}
	.st1{fill:#4D4D4C;}
</style>
<path id="XMLID_1295_" class="st0" d="M-237.5,373.7h-35c-3.2,0-5.8,2.6-5.8,5.8v35c0,3.2,2.6,5.8,5.8,5.8h35c3.2,0,5.8-2.6,5.8-5.8
	v-35C-231.7,376.3-234.3,373.7-237.5,373.7z"/>
<path id="XMLID_1294_" class="st1" d="M-246.2,397v-5.8c0-1.6,1.3-1.5,2.9-1.5h2.9v-7.3h-5.8c-4.8,0-8.8,3.9-8.8,8.7v5.9h-5.8v7.3
	h5.8v16h8.8v-16h4.4l2.8-7.3H-246.2z"/>
</svg>
