<?xml version="1.0" encoding="utf-8"?>
<!-- Generator: Adobe Illustrator 19.0.0, SVG Export Plug-In . SVG Version: 6.00 Build 0)  -->
<svg version="1.1" id="Capa_1" xmlns="http://www.w3.org/2000/svg" xmlns:xlink="http://www.w3.org/1999/xlink" x="0px" y="0px"
	 viewBox="0 0 50 50" style="enable-background:new 0 0 50 50;" xml:space="preserve">
<style type="text/css">
	.st0{fill:#3B5999;}
	.st1{fill:#FFFFFF;}
</style>
<g id="XMLID_14_">
	<path id="XMLID_660_" class="st0" d="M43.4,0.5H6.6c-3.4,0-6.1,2.7-6.1,6.1v36.8c0,3.4,2.7,6.1,6.1,6.1h36.8c3.4,0,6.1-2.7,6.1-6.1
		V6.6C49.5,3.2,46.8,0.5,43.4,0.5z"/>
	<path id="XMLID_658_" class="st1" d="M34.2,25v-6.1c0-1.7,1.4-1.5,3.1-1.5h3.1V9.7h-6.1c-5.1,0-9.2,4.1-9.2,9.2V25h-6.1v7.7H25
		v16.8h9.2V32.7h4.6l3.1-7.7H34.2z"/>
</g>
</svg>
