<?xml version="1.0" encoding="utf-8"?>
<!-- Generator: Adobe Illustrator 19.0.0, SVG Export Plug-In . SVG Version: 6.00 Build 0)  -->
<svg version="1.1" id="Capa_1" xmlns="http://www.w3.org/2000/svg" xmlns:xlink="http://www.w3.org/1999/xlink" x="0px" y="0px"
	 viewBox="0 0 50 50" style="enable-background:new 0 0 50 50;" xml:space="preserve">
<style type="text/css">
	.st0{fill:#4D4D4C;}
	.st1{fill:#FFFFFF;}
</style>
<g id="XMLID_1293_">
	<path id="XMLID_1295_" class="st0" d="M42.5,1.7h-35c-3.2,0-5.8,2.6-5.8,5.8v35c0,3.2,2.6,5.8,5.8,5.8h35c3.2,0,5.8-2.6,5.8-5.8
		v-35C48.3,4.3,45.7,1.7,42.5,1.7z"/>
	<path id="XMLID_1294_" class="st1" d="M33.8,25v-5.8c0-1.6,1.3-1.5,2.9-1.5h2.9v-7.3h-5.8c-4.8,0-8.8,3.9-8.8,8.7V25h-5.8v7.3H25
		v16h8.8v-16h4.4L41,25H33.8z"/>
</g>
</svg>
