<?xml version="1.0" encoding="utf-8"?>
<!-- Generator: Adobe Illustrator 19.0.0, SVG Export Plug-In . SVG Version: 6.00 Build 0)  -->
<svg version="1.1" id="Capa_1" xmlns="http://www.w3.org/2000/svg" xmlns:xlink="http://www.w3.org/1999/xlink" x="0px" y="0px"
	 viewBox="0 0 50 50" style="enable-background:new 0 0 50 50;" xml:space="preserve">
<style type="text/css">
	.st0{fill:#030303;}
	.st1{fill:#040404;}
	.st2{fill:#020202;}
	.st3{fill:#050505;}
	.st4{fill:#E34F28;}
	.st5{fill:#E9662D;}
	.st6{fill:#E9E7E8;}
	.st7{fill:#E9E8E8;}
	.st8{fill:#E9662E;}
	.st9{fill:#FEFEFD;}
	.st10{fill:#FEFEFE;}
	.st11{fill:#E34E27;}
</style>
<g id="XMLID_1_">
	<path id="XMLID_84_" class="st0" d="M32.8,0.5c0,2.2,0,4.4,0,6.6c-0.7,0-1.4,0-2.2,0c0-1,0-2,0-3c0,0-0.1,0-0.1,0
		C30,4.8,29.6,5.5,29,6.2c-0.5-0.7-1-1.5-1.5-2.3c0,1.1,0,2.1,0,3.1c-0.8,0-1.5,0-2.2,0c0-0.4,0-0.7,0-1.1c0-1.7,0-3.3,0-5
		c0-0.2,0-0.3,0-0.5c0.8,0,1.6,0,2.4,0c0.4,0.7,0.9,1.5,1.4,2.3C29.6,2,30,1.3,30.5,0.5C31.2,0.5,32,0.5,32.8,0.5z"/>
	<path id="XMLID_83_" class="st1" d="M17.4,0.5c0,2.2,0,4.4,0,6.6c-0.8,0-1.5,0-2.2,0c0-0.7,0-1.4,0-2.2c-0.7,0-1.3,0-2,0
		c0,0.7,0,1.4,0,2.2c-0.8,0-1.5,0-2.3,0c0-2.2,0-4.4,0-6.6c0.7,0,1.5,0,2.2,0c0,0.7,0,1.4,0,2.2c0.7,0,1.4,0,2.1,0
		c0-0.7,0-1.4,0-2.2C15.9,0.5,16.6,0.5,17.4,0.5z"/>
	<path id="XMLID_82_" class="st2" d="M24.4,0.5c0,0.7,0,1.5,0,2.2c-0.7,0-1.3,0-2,0c0,1.5,0,2.9,0,4.4c-0.8,0-1.5,0-2.2,0
		c0-1.4,0-2.9,0-4.4c-0.7,0-1.3,0-2,0c0-0.8,0-1.5,0-2.2C20.3,0.5,22.4,0.5,24.4,0.5z"/>
	<path id="XMLID_81_" class="st3" d="M36.1,0.5c0,1.4,0,2.9,0,4.4c1,0,2,0,3.1,0c0,0.8,0,1.5,0,2.2c-1.8,0-3.5,0-5.3,0
		c0-1.2,0-2.5,0-3.7c0-1,0-1.9,0-2.9C34.6,0.5,35.3,0.5,36.1,0.5z"/>
	<path id="XMLID_76_" class="st4" d="M7.6,10.2c11.6,0,23.1,0,34.7,0c0,0.6-0.1,1.2-0.1,1.9c-0.4,4.1-0.7,8.2-1.1,12.3
		c-0.4,4.1-0.7,8.2-1.1,12.3c-0.3,2.9-0.5,5.7-0.8,8.6c0,0.3-0.1,0.4-0.4,0.5c-4.5,1.2-9.1,2.5-13.6,3.8c-0.2,0-0.4,0-0.6,0
		c-4.5-1.2-9-2.5-13.6-3.8c-0.3-0.1-0.4-0.2-0.4-0.5c-0.4-5.2-0.9-10.3-1.4-15.5C8.9,24.4,8.4,19,8,13.7C7.9,12.5,7.7,11.4,7.6,10.2
		z M25,37.4c-1.5-0.4-3.1-0.8-4.6-1.2c-0.1,0-0.3-0.3-0.3-0.5c-0.1-1-0.2-2-0.3-3c-1.5,0-2.9,0-4.4,0c0.2,2.2,0.4,4.4,0.6,6.5
		c0,0.1,0.2,0.3,0.3,0.4c2.9,0.8,5.8,1.6,8.6,2.4c0,1.5,0,2.9,0,4.4c0.2,0,0.3,0,0.4,0c1.2-0.3,2.4-0.7,3.7-1c2.4-0.7,4.7-1.3,7.1-2
		c0.2-0.1,0.3-0.2,0.4-0.4c0.1-0.9,0.2-1.9,0.3-2.8c0.1-0.9,0.1-1.7,0.2-2.6c0.1-1.3,0.3-2.6,0.4-3.9c0.1-0.9,0.1-1.7,0.2-2.6
		c0.1-1.2,0.3-2.4,0.4-3.5c0.1-1.3,0.2-2.5,0.3-3.8c0.1-1.4,0.2-2.8,0.4-4.2c0.1-0.8,0.1-1.5,0.2-2.3c0.1-1.3,0.2-2.6,0.4-3.9
		c0-0.3-0.1-0.4-0.4-0.4c-4.4,0-8.9,0-13.3,0c-0.4,0-0.4,0.1-0.4,0.5c0,1.3,0,2.6,0,3.8c-0.2,0-0.4,0-0.6,0c-3.3,0-6.5,0-9.8,0
		c-0.2,0-0.3,0-0.5,0c0.4,4.4,0.8,8.8,1.2,13.2c0.7,0,1.4,0,2.1,0c2.5,0,5.1,0,7.6,0C25,32.9,25,35.1,25,37.4z"/>
	<path id="XMLID_75_" class="st5" d="M25,17.4c0-1.3,0-2.6,0-3.8c0-0.3,0.1-0.5,0.4-0.5c4.4,0,8.9,0,13.3,0c0.3,0,0.5,0.1,0.4,0.4
		c-0.1,1.3-0.2,2.6-0.4,3.9c-0.1,0.8-0.1,1.5-0.2,2.3c-0.1,1.4-0.3,2.8-0.4,4.2c-0.1,1.3-0.2,2.5-0.3,3.8c-0.1,1.2-0.2,2.4-0.4,3.5
		c-0.1,0.9-0.1,1.7-0.2,2.6c-0.1,1.3-0.3,2.6-0.4,3.9c-0.1,0.9-0.1,1.7-0.2,2.6c-0.1,0.9-0.2,1.9-0.3,2.8c0,0.2-0.1,0.3-0.4,0.4
		c-2.4,0.6-4.7,1.3-7.1,2c-1.2,0.3-2.4,0.7-3.7,1c-0.1,0-0.2,0-0.4,0c0-1.5,0-3,0-4.4c0,0,0,0,0,0c0.1,0,0.2,0,0.3,0
		c2.2-0.6,4.4-1.2,6.6-1.8c0.7-0.2,1.3-0.4,2-0.6c0.4-4.5,0.8-8.9,1.2-13.3c-0.1,0-0.1,0-0.2,0c-3.3,0-6.6,0-9.9,0l0,0
		c0-1.5,0-2.9,0-4.4c0,0,0,0,0,0c0.1,0,0.2,0,0.2,0c3.3,0,6.6,0,9.9,0c0.1,0,0.2,0,0.3,0c0.1-1.4,0.3-2.9,0.4-4.3
		c-0.2,0-0.4,0-0.6,0c-2.2,0-4.5,0-6.7,0C27.4,17.4,26.2,17.4,25,17.4L25,17.4z"/>
	<path id="XMLID_74_" class="st6" d="M25,30.6c-2.5,0-5.1,0-7.6,0c-0.7,0-1.4,0-2.1,0c-0.4-4.4-0.8-8.8-1.2-13.2c0.2,0,0.4,0,0.5,0
		c3.3,0,6.5,0,9.8,0c0.2,0,0.4,0,0.6,0c0,0,0,0,0,0c0,1.4,0,2.9,0,4.3c0,0,0,0,0,0c-2,0-4.1,0-6.1,0c0.1,1.5,0.3,2.9,0.4,4.4
		c2,0,3.8,0,5.7,0c0,0,0,0,0,0C25,27.6,25,29.1,25,30.6L25,30.6z"/>
	<path id="XMLID_73_" class="st7" d="M25,42c-2.9-0.8-5.8-1.6-8.6-2.4c-0.1,0-0.3-0.2-0.3-0.4c-0.2-2.2-0.4-4.3-0.6-6.5
		c1.5,0,2.9,0,4.4,0c0.1,1,0.2,2,0.3,3c0,0.2,0.1,0.4,0.3,0.5c1.5,0.4,3.1,0.8,4.6,1.2l0,0C25,39,25,40.5,25,42L25,42z"/>
	<path id="XMLID_72_" class="st8" d="M25,37.4c0-2.3,0-4.6,0-6.9c0,0,0,0,0,0c1.8,0,3.5,0,5.3,0c0,0.2,0,0.2,0,0.3
		c-0.1,1.7-0.3,3.4-0.4,5c0,0.3-0.2,0.4-0.4,0.4C28,36.7,26.5,37.1,25,37.4L25,37.4z"/>
	<path id="XMLID_71_" class="st9" d="M25,37.5c1.5-0.4,3-0.8,4.5-1.2c0.2-0.1,0.4-0.1,0.4-0.4c0.1-1.7,0.3-3.4,0.4-5
		c0-0.1,0-0.1,0-0.3c-1.8,0-3.5,0-5.3,0c0-1.4,0-2.9,0-4.3c3.3,0,6.6,0,9.9,0c0,0,0.1,0,0.2,0c-0.4,4.4-0.8,8.8-1.2,13.3
		c-0.7,0.2-1.3,0.4-2,0.6c-2.2,0.6-4.4,1.2-6.6,1.8c-0.1,0-0.2,0-0.3,0C25,40.5,25,39,25,37.5z"/>
	<path id="XMLID_70_" class="st10" d="M25,21.7c0-1.4,0-2.9,0-4.3c1.2,0,2.4,0,3.6,0c2.2,0,4.5,0,6.7,0c0.2,0,0.3,0,0.6,0
		c-0.1,1.5-0.3,2.9-0.4,4.3c-0.1,0-0.2,0-0.3,0c-3.3,0-6.6,0-9.9,0C25.2,21.7,25.1,21.7,25,21.7z"/>
	<path id="XMLID_69_" class="st11" d="M25,26.1c-1.9,0-3.8,0-5.7,0c-0.1-1.4-0.3-2.9-0.4-4.4c2.1,0,4.1,0,6.1,0
		C25,23.2,25,24.7,25,26.1z"/>
</g>
</svg>
