<?xml version="1.0" encoding="utf-8"?>
<!-- Generator: Adobe Illustrator 19.0.0, SVG Export Plug-In . SVG Version: 6.00 Build 0)  -->
<svg version="1.1" id="Capa_1" xmlns="http://www.w3.org/2000/svg" xmlns:xlink="http://www.w3.org/1999/xlink" x="0px" y="0px"
	 viewBox="0 0 50 50" style="enable-background:new 0 0 50 50;" xml:space="preserve">
<style type="text/css">
	.st0{fill:#330000;}
	.st1{fill:#FF9A00;}
</style>
<g id="XMLID_1_">
	<path id="XMLID_10_" class="st0" d="M39.7,49.5H10.3c-5.4,0-9.8-4.4-9.8-9.8V10.3c0-5.4,4.4-9.8,9.8-9.8h29.4
		c5.4,0,9.8,4.4,9.8,9.8v29.4C49.5,45.1,45.1,49.5,39.7,49.5z"/>
	<g id="XMLID_7_">
		<path id="XMLID_2_" class="st1" d="M17.3,28.3l-1.9,6.2h-4.1l7-21.8h5.1l7.1,21.8h-4.3l-2-6.2H17.3z M23.6,25.3l-1.7-5.4
			c-0.4-1.3-0.8-2.8-1.1-4.1h-0.1c-0.3,1.3-0.7,2.8-1,4.1L18,25.3H23.6z"/>
		<path id="XMLID_5_" class="st1" d="M37.4,14.3c0,1.2-0.9,2.1-2.3,2.1c-1.3,0-2.2-1-2.2-2.1c0-1.2,0.9-2.2,2.2-2.2
			C36.6,12.2,37.4,13.1,37.4,14.3z M33.2,34.5V18.7h4v15.8H33.2z"/>
	</g>
</g>
</svg>
