<?xml version="1.0" encoding="utf-8"?>
<!-- Generator: Adobe Illustrator 19.0.0, SVG Export Plug-In . SVG Version: 6.00 Build 0)  -->
<svg version="1.1" id="Capa_1" xmlns="http://www.w3.org/2000/svg" xmlns:xlink="http://www.w3.org/1999/xlink" x="0px" y="0px"
	 viewBox="0 0 50 50" style="enable-background:new 0 0 50 50;" xml:space="preserve">
<style type="text/css">
	.st0{fill:#4D4D4D;}
	.st1{fill:#FFFFFF;}
</style>
<g id="XMLID_1274_">
	<path id="XMLID_1287_" class="st0" d="M47.5,10C47.1,6,44,2.9,40,2.5c-10-1.1-20-1.1-30,0C6,2.9,2.9,6,2.5,10c-1.1,10-1.1,20,0,30
		c0.4,4,3.6,7.1,7.5,7.5c10,1.1,20,1.1,30,0c4-0.4,7.1-3.6,7.5-7.5C48.6,30,48.6,20,47.5,10z"/>
	<path id="XMLID_1286_" class="st0" d="M45,11.7c-0.4-3.5-3.2-6.3-6.7-6.7c-8.9-0.9-17.7-0.9-26.6,0C8.2,5.4,5.4,8.2,5,11.7
		c-0.9,8.9-0.9,17.7,0,26.6c0.4,3.5,3.2,6.3,6.7,6.7c8.9,0.9,17.7,0.9,26.6,0c3.5-0.4,6.3-3.2,6.7-6.7C45.9,29.4,45.9,20.6,45,11.7z
		"/>
	<path id="XMLID_1283_" class="st0" d="M10.3,19.3c0.1-0.7,0.2-1.4,0.3-2.1c0.7-3.9,3.4-6.5,7.3-6.6c4.7-0.2,9.4-0.2,14.1,0
		c4.3,0.2,7.3,3.3,7.5,7.6c0.1,4.5,0.1,9,0,13.6c-0.1,4.3-3.2,7.4-7.5,7.6c-4.7,0.2-9.4,0.2-14.1,0c-4.3-0.2-7.2-3.3-7.5-7.6
		c0-0.4-0.1-0.7-0.2-1.1C10.3,26.9,10.3,23.1,10.3,19.3z M25,36.8c2.2,0,4.3,0.1,6.5,0c3.4-0.1,5.4-2.1,5.5-5.5
		c0.1-4.2,0.1-8.4,0-12.6c-0.1-3.4-2.2-5.4-5.5-5.5c-4.3-0.1-8.6-0.1-12.8,0c-3.3,0.1-5.4,2.1-5.5,5.4c-0.1,4.2-0.1,8.5,0,12.8
		c0.1,3.3,2.2,5.3,5.5,5.4C20.8,36.9,22.9,36.8,25,36.8z"/>
	<g id="XMLID_1275_">
		<path id="XMLID_1280_" class="st1" d="M10.3,19.3c0.1-0.7,0.2-1.4,0.3-2.1c0.7-3.9,3.4-6.5,7.3-6.6c4.7-0.2,9.4-0.2,14.1,0
			c4.3,0.2,7.3,3.3,7.5,7.6c0.1,4.5,0.1,9,0,13.6c-0.1,4.3-3.2,7.4-7.5,7.6c-4.7,0.2-9.4,0.2-14.1,0c-4.3-0.2-7.2-3.3-7.5-7.6
			c0-0.4-0.1-0.7-0.2-1.1C10.3,26.9,10.3,23.1,10.3,19.3z M25,36.8c2.2,0,4.3,0.1,6.5,0c3.4-0.1,5.4-2.1,5.5-5.5
			c0.1-4.2,0.1-8.4,0-12.6c-0.1-3.4-2.2-5.4-5.5-5.5c-4.3-0.1-8.6-0.1-12.8,0c-3.3,0.1-5.4,2.1-5.5,5.4c-0.1,4.2-0.1,8.5,0,12.8
			c0.1,3.3,2.2,5.3,5.5,5.4C20.8,36.9,22.9,36.8,25,36.8z"/>
		<path id="XMLID_1277_" class="st1" d="M25,17.5c-4.1,0-7.5,3.3-7.5,7.5c0,4.1,3.3,7.5,7.5,7.5c4.1,0,7.5-3.3,7.5-7.5
			C32.5,20.9,29.1,17.5,25,17.5z M25,29.9c-2.7,0-4.9-2.2-4.9-4.9s2.2-4.9,4.9-4.9s4.9,2.2,4.9,4.9S27.7,29.9,25,29.9z"/>
		<path id="XMLID_1276_" class="st1" d="M34.7,17.2c0,1-0.8,1.8-1.8,1.8c-1,0-1.8-0.8-1.8-1.8c0-1,0.8-1.8,1.8-1.8
			C33.9,15.4,34.7,16.2,34.7,17.2z"/>
	</g>
</g>
</svg>
