<?xml version="1.0" encoding="utf-8"?>
<!-- Generator: Adobe Illustrator 19.0.0, SVG Export Plug-In . SVG Version: 6.00 Build 0)  -->
<svg version="1.1" id="Capa_1" xmlns="http://www.w3.org/2000/svg" xmlns:xlink="http://www.w3.org/1999/xlink" x="0px" y="0px"
	 viewBox="0 0 50 50" style="enable-background:new 0 0 50 50;" xml:space="preserve">
<style type="text/css">
	.st0{fill:url(#XMLID_2_);}
	.st1{fill:url(#XMLID_3_);}
	.st2{fill:#FFFFFF;}
</style>
<g id="XMLID_748_">
	
		<radialGradient id="XMLID_2_" cx="10.5445" cy="8.6779" r="54.0384" gradientTransform="matrix(1 0 0 -1 1.831055e-004 52)" gradientUnits="userSpaceOnUse">
		<stop  offset="0" style="stop-color:#FAE100"/>
		<stop  offset="5.440000e-002" style="stop-color:#FADC04"/>
		<stop  offset="0.1167" style="stop-color:#FBCE0E"/>
		<stop  offset="0.1829" style="stop-color:#FCB720"/>
		<stop  offset="0.2514" style="stop-color:#FE9838"/>
		<stop  offset="0.3054" style="stop-color:#FF7950"/>
		<stop  offset="0.4922" style="stop-color:#FF1C74"/>
		<stop  offset="1" style="stop-color:#6C1CD1"/>
	</radialGradient>
	<path id="XMLID_960_" class="st0" d="M48.7,9.3c-0.4-4.2-3.7-7.5-7.9-7.9c-10.5-1.1-21-1.1-31.5,0C5.1,1.8,1.8,5.1,1.3,9.3
		c-1.1,10.5-1.1,21,0,31.5c0.4,4.2,3.7,7.5,7.9,7.9c10.5,1.1,21,1.1,31.5,0c4.2-0.4,7.5-3.7,7.9-7.9C49.8,30.3,49.8,19.7,48.7,9.3z"
		/>
	
		<linearGradient id="XMLID_3_" gradientUnits="userSpaceOnUse" x1="34.7288" y1="36.6613" x2="14.9072" y2="16.8397" gradientTransform="matrix(1 0 0 -1 1.831055e-004 52)">
		<stop  offset="0" style="stop-color:#833AB4"/>
		<stop  offset="9.220000e-002" style="stop-color:#9C3495"/>
		<stop  offset="0.2927" style="stop-color:#DC2546"/>
		<stop  offset="0.392" style="stop-color:#FD1D1D"/>
		<stop  offset="0.5589" style="stop-color:#FC6831"/>
		<stop  offset="0.6887" style="stop-color:#FC9B40"/>
		<stop  offset="0.7521" style="stop-color:#FCAF45"/>
		<stop  offset="0.7806" style="stop-color:#FDB750"/>
		<stop  offset="0.8656" style="stop-color:#FECB6A"/>
		<stop  offset="0.9415" style="stop-color:#FFD87A"/>
		<stop  offset="1" style="stop-color:#FFDC80"/>
	</linearGradient>
	<path id="XMLID_878_" class="st1" d="M9.6,19.1c0.1-0.7,0.2-1.4,0.3-2.2c0.7-4.1,3.6-6.8,7.7-7c4.9-0.2,9.9-0.2,14.8,0
		c4.5,0.2,7.7,3.5,7.8,7.9c0.1,4.7,0.1,9.5,0,14.2c-0.1,4.5-3.4,7.8-7.8,7.9c-4.9,0.2-9.9,0.2-14.8,0c-4.5-0.2-7.6-3.5-7.9-8
		c0-0.4-0.1-0.8-0.2-1.2C9.6,27,9.6,23,9.6,19.1z M25,37.4c2.3,0,4.5,0.1,6.8,0c3.5-0.1,5.7-2.2,5.8-5.8c0.1-4.4,0.1-8.8,0-13.2
		c-0.1-3.5-2.3-5.7-5.8-5.8c-4.5-0.1-9-0.1-13.5,0c-3.5,0.1-5.7,2.2-5.8,5.7c-0.1,4.5-0.1,8.9,0,13.4c0.1,3.5,2.3,5.6,5.8,5.7
		C20.5,37.5,22.8,37.4,25,37.4z"/>
	<g id="XMLID_858_">
		<path id="XMLID_870_" class="st2" d="M9.6,19.1c0.1-0.7,0.2-1.4,0.3-2.2c0.7-4.1,3.6-6.8,7.7-7c4.9-0.2,9.9-0.2,14.8,0
			c4.5,0.2,7.7,3.5,7.8,7.9c0.1,4.7,0.1,9.5,0,14.2c-0.1,4.5-3.4,7.8-7.8,7.9c-4.9,0.2-9.9,0.2-14.8,0c-4.5-0.2-7.6-3.5-7.9-8
			c0-0.4-0.1-0.8-0.2-1.2C9.6,27,9.6,23,9.6,19.1z M25,37.4c2.3,0,4.5,0.1,6.8,0c3.5-0.1,5.7-2.2,5.8-5.8c0.1-4.4,0.1-8.8,0-13.2
			c-0.1-3.5-2.3-5.7-5.8-5.8c-4.5-0.1-9-0.1-13.5,0c-3.5,0.1-5.7,2.2-5.8,5.7c-0.1,4.5-0.1,8.9,0,13.4c0.1,3.5,2.3,5.6,5.8,5.7
			C20.5,37.5,22.8,37.4,25,37.4z"/>
		<path id="XMLID_867_" class="st2" d="M25,17.2c-4.3,0-7.8,3.5-7.8,7.8c0,4.3,3.5,7.8,7.8,7.8c4.3,0,7.8-3.5,7.8-7.8
			C32.8,20.7,29.3,17.2,25,17.2z M25,30.1c-2.8,0-5.1-2.3-5.1-5.1s2.3-5.1,5.1-5.1s5.1,2.3,5.1,5.1S27.8,30.1,25,30.1z"/>
		<path id="XMLID_861_" class="st2" d="M35.2,16.8c0,1-0.8,1.9-1.9,1.9s-1.9-0.8-1.9-1.9c0-1,0.8-1.9,1.9-1.9S35.2,15.8,35.2,16.8z"
			/>
	</g>
</g>
</svg>
