<?xml version="1.0" encoding="utf-8"?>
<!-- Generator: Adobe Illustrator 19.0.0, SVG Export Plug-In . SVG Version: 6.00 Build 0)  -->
<svg version="1.1" id="Capa_1" xmlns="http://www.w3.org/2000/svg" xmlns:xlink="http://www.w3.org/1999/xlink" x="0px" y="0px"
	 viewBox="-280 372 50 50" style="enable-background:new -280 372 50 50;" xml:space="preserve">
<style type="text/css">
	.st0{fill:#FFFFFF;}
	.st1{fill:#4D4D4D;}
</style>
<path id="XMLID_1287_" class="st0" d="M-232.5,382c-0.4-4-3.5-7.1-7.5-7.5c-10-1.1-20-1.1-30,0c-4,0.4-7.1,3.5-7.5,7.5
	c-1.1,10-1.1,20,0,30c0.4,4,3.6,7.1,7.5,7.5c10,1.1,20,1.1,30,0c4-0.4,7.1-3.6,7.5-7.5C-231.4,402-231.4,392-232.5,382z"/>
<path id="XMLID_1286_" class="st0" d="M-235,383.7c-0.4-3.5-3.2-6.3-6.7-6.7c-8.9-0.9-17.7-0.9-26.6,0c-3.5,0.4-6.3,3.2-6.7,6.7
	c-0.9,8.9-0.9,17.7,0,26.6c0.4,3.5,3.2,6.3,6.7,6.7c8.9,0.9,17.7,0.9,26.6,0c3.5-0.4,6.3-3.2,6.7-6.7
	C-234.1,401.4-234.1,392.6-235,383.7z"/>
<path id="XMLID_1283_" class="st1" d="M-269.7,391.3c0.1-0.7,0.2-1.4,0.3-2.1c0.7-3.9,3.4-6.5,7.3-6.6c4.7-0.2,9.4-0.2,14.1,0
	c4.3,0.2,7.3,3.3,7.5,7.6c0.1,4.5,0.1,9,0,13.6c-0.1,4.3-3.2,7.4-7.5,7.6c-4.7,0.2-9.4,0.2-14.1,0c-4.3-0.2-7.2-3.3-7.5-7.6
	c0-0.4-0.1-0.7-0.2-1.1C-269.7,398.9-269.7,395.1-269.7,391.3z M-255,408.8c2.2,0,4.3,0.1,6.5,0c3.4-0.1,5.4-2.1,5.5-5.5
	c0.1-4.2,0.1-8.4,0-12.6c-0.1-3.4-2.2-5.4-5.5-5.5c-4.3-0.1-8.6-0.1-12.8,0c-3.3,0.1-5.4,2.1-5.5,5.4c-0.1,4.2-0.1,8.5,0,12.8
	c0.1,3.3,2.2,5.3,5.5,5.4C-259.2,408.9-257.1,408.8-255,408.8z"/>
<g id="XMLID_1275_">
	<path id="XMLID_1280_" class="st1" d="M-269.7,391.3c0.1-0.7,0.2-1.4,0.3-2.1c0.7-3.9,3.4-6.5,7.3-6.6c4.7-0.2,9.4-0.2,14.1,0
		c4.3,0.2,7.3,3.3,7.5,7.6c0.1,4.5,0.1,9,0,13.6c-0.1,4.3-3.2,7.4-7.5,7.6c-4.7,0.2-9.4,0.2-14.1,0c-4.3-0.2-7.2-3.3-7.5-7.6
		c0-0.4-0.1-0.7-0.2-1.1C-269.7,398.9-269.7,395.1-269.7,391.3z M-255,408.8c2.2,0,4.3,0.1,6.5,0c3.4-0.1,5.4-2.1,5.5-5.5
		c0.1-4.2,0.1-8.4,0-12.6c-0.1-3.4-2.2-5.4-5.5-5.5c-4.3-0.1-8.6-0.1-12.8,0c-3.3,0.1-5.4,2.1-5.5,5.4c-0.1,4.2-0.1,8.5,0,12.8
		c0.1,3.3,2.2,5.3,5.5,5.4C-259.2,408.9-257.1,408.8-255,408.8z"/>
	<path id="XMLID_1277_" class="st1" d="M-255,389.5c-4.1,0-7.5,3.3-7.5,7.5c0,4.1,3.3,7.5,7.5,7.5c4.1,0,7.5-3.3,7.5-7.5
		C-247.5,392.9-250.9,389.5-255,389.5z M-255,401.9c-2.7,0-4.9-2.2-4.9-4.9s2.2-4.9,4.9-4.9c2.7,0,4.9,2.2,4.9,4.9
		S-252.3,401.9-255,401.9z"/>
	<path id="XMLID_1276_" class="st1" d="M-245.3,389.2c0,1-0.8,1.8-1.8,1.8s-1.8-0.8-1.8-1.8s0.8-1.8,1.8-1.8
		S-245.3,388.2-245.3,389.2z"/>
</g>
</svg>
