<?xml version="1.0" encoding="utf-8"?>
<!-- Generator: Adobe Illustrator 19.0.0, SVG Export Plug-In . SVG Version: 6.00 Build 0)  -->
<svg version="1.1" id="Capa_1" xmlns="http://www.w3.org/2000/svg" xmlns:xlink="http://www.w3.org/1999/xlink" x="0px" y="0px"
	 viewBox="-280 372 50 50" style="enable-background:new -280 372 50 50;" xml:space="preserve">
<style type="text/css">
	.st0{fill:#FFFFFF;}
	.st1{fill:#4D4D4C;}
</style>
<path id="XMLID_1292_" class="st0" d="M-235.9,373.7h-38.2c-2.3,0-4.2,1.9-4.2,4.2v38.2c0,2.3,1.9,4.2,4.2,4.2h38.2
	c2.3,0,4.2-1.9,4.2-4.2v-38.2C-231.7,375.6-233.6,373.7-235.9,373.7z"/>
<path id="XMLID_1291_" class="st1" d="M-263.9,414c0,0.7-0.5,1.2-1.2,1.2h-5.3c-0.7,0-1.2-0.5-1.2-1.2v-22c0-0.7,0.5-1.2,1.2-1.2
	h5.2c0.7,0,1.2,0.5,1.2,1.2v22H-263.9z"/>
<circle id="XMLID_1290_" class="st1" cx="-267.7" cy="383.8" r="5"/>
<path id="XMLID_1289_" class="st1" d="M-236.6,414.1c0,0.6-0.5,1.1-1.1,1.1h-5.6c-0.6,0-1.1-0.5-1.1-1.1v-10.3c0-1.5,0.4-6.7-4-6.7
	c-3.5,0-4.2,3.6-4.3,5.1v11.9c0,0.6-0.5,1.1-1.1,1.1h-5.4c-0.6,0-1.1-0.5-1.1-1.1v-22.2c0-0.6,0.5-1.1,1.1-1.1h5.4
	c0.6,0,1.1,0.5,1.1,1.1v1.9c1.3-1.9,3.2-3.4,7.2-3.4c9,0,8.9,8.4,8.9,13L-236.6,414.1L-236.6,414.1z"/>
</svg>
