<?xml version="1.0" encoding="utf-8"?>
<!-- Generator: Adobe Illustrator 19.0.0, SVG Export Plug-In . SVG Version: 6.00 Build 0)  -->
<svg version="1.1" id="Capa_1" xmlns="http://www.w3.org/2000/svg" xmlns:xlink="http://www.w3.org/1999/xlink" x="0px" y="0px"
	 viewBox="0 0 50 50" style="enable-background:new 0 0 50 50;" xml:space="preserve">
<style type="text/css">
	.st0{fill:#4D4D4C;}
	.st1{fill:#FFFFFF;}
</style>
<g id="XMLID_1288_">
	<path id="XMLID_1292_" class="st0" d="M44.1,1.7H5.9c-2.3,0-4.2,1.9-4.2,4.2v38.2c0,2.3,1.9,4.2,4.2,4.2h38.2
		c2.3,0,4.2-1.9,4.2-4.2V5.9C48.3,3.6,46.4,1.7,44.1,1.7z"/>
	<path id="XMLID_1291_" class="st1" d="M16.1,42c0,0.7-0.5,1.2-1.2,1.2H9.6c-0.7,0-1.2-0.5-1.2-1.2V20c0-0.7,0.5-1.2,1.2-1.2h5.2
		c0.7,0,1.2,0.5,1.2,1.2V42z"/>
	<circle id="XMLID_1290_" class="st1" cx="12.3" cy="11.8" r="5"/>
	<path id="XMLID_1289_" class="st1" d="M43.4,42.1c0,0.6-0.5,1.1-1.1,1.1h-5.6c-0.6,0-1.1-0.5-1.1-1.1V31.8c0-1.5,0.4-6.7-4-6.7
		c-3.5,0-4.2,3.6-4.3,5.1v11.9c0,0.6-0.5,1.1-1.1,1.1h-5.4c-0.6,0-1.1-0.5-1.1-1.1V19.9c0-0.6,0.5-1.1,1.1-1.1h5.4
		c0.6,0,1.1,0.5,1.1,1.1v1.9c1.3-1.9,3.2-3.4,7.2-3.4c9,0,8.9,8.4,8.9,13L43.4,42.1L43.4,42.1z"/>
</g>
</svg>
