<?xml version="1.0" encoding="utf-8"?>
<!-- Generator: Adobe Illustrator 19.0.0, SVG Export Plug-In . SVG Version: 6.00 Build 0)  -->
<svg version="1.1" id="Capa_1" xmlns="http://www.w3.org/2000/svg" xmlns:xlink="http://www.w3.org/1999/xlink" x="0px" y="0px"
	 viewBox="0 0 100 52" style="enable-background:new 0 0 100 52;" xml:space="preserve">
<style type="text/css">
	.st0{fill:#4D4D4C;}
	.st1{fill:#31A9DC;}
</style>
<g id="XMLID_1299_">
	<ellipse id="XMLID_1304_" class="st0" cx="30.2" cy="27.2" rx="3" ry="3.7"/>
	<ellipse id="XMLID_1303_" class="st0" cx="69.4" cy="27.2" rx="3" ry="3.7"/>
	<g id="XMLID_1301_">
		<path id="XMLID_1302_" class="st0" d="M49.8,50.9c-1.8,0-7.8-0.5-12.3-6.7c-0.4-0.6-0.3-1.4,0.3-1.8c0.6-0.4,1.4-0.3,1.8,0.3
			c3.8,5.3,8.8,5.9,10.3,5.9c3.2,0,7.4-1.7,10.4-5.9c0.4-0.6,1.2-0.7,1.8-0.3c0.6,0.4,0.7,1.2,0.3,1.8
			C58.7,49.2,53.6,50.9,49.8,50.9z"/>
	</g>
	<path id="XMLID_1300_" class="st1" d="M70.3,50.9c2.2,0,8.7,0,8.7,0c0.2,0,0.4-0.1,0.6-0.2l17.6-11.2c0.6-0.4,0.8-1.1,0.4-1.7
		c-0.4-0.6-1.1-0.7-1.7-0.4L78.7,48.6h-8.4c-2.2,0-3.9-2.4-3.9-4.5c0-2.2,1.7-4.4,3.9-4.4l4.7,0c0.9,0,1.4-0.7,1.4-1.5V18.4
		c0-0.6-0.5-1.1-1.1-1.1h-9.8c-1.5,0-2.6,1.2-2.6,2.7v7.1c0,0.7,0.8,0.7,1.1,0.7c0.4,0,1.2,0,1.2-0.7v-7.3c0-0.1,0.1-0.2,0.2-0.2H74
		v17.7h-3.2c0,0,0,0,0,0c0,0,0,0,0,0h-18c-0.9,0-1.7-0.9-1.7-2V5.9c0-1.3,1.2-2.4,2.5-2.5l42.9,3.9c0.7,0,1.3-0.5,1.3-1.1
		c0-0.7-0.5-1.3-1.1-1.3L53.8,0.9c0,0-0.1,0-0.1,0c-1.5,0-2.8,0.6-3.7,1.7c-0.9-1-2.2-1.7-3.6-1.7c0,0-0.1,0-0.1,0l-43,3.9
		c-0.7,0-1.2,0.6-1.1,1.3c0,0.7,0.6,1.2,1.3,1.1l42.9-3.9c1.3,0,2.4,1.1,2.4,2.5v29.4c0,1.1-0.5,2-1.4,2h-18c0,0,0,0,0,0
		c0,0,0,0,0,0H26V19.6h8.7c0.1,0,0.2,0.1,0.2,0.2v7.2c0,0.7,0.9,0.7,1.2,0.7c0.4,0,1.2,0,1.2-0.7v-7.3c0-1.4-1.2-2.6-2.6-2.6H25
		c-0.8,0-1.4,0.6-1.4,1.4v19.5c0,0.9,0.9,1.5,1.8,1.5l4.5,0c2.2,0,3.8,2.2,3.8,4.4c0,2.1-1.4,4.5-3.7,4.5h-8.5L4,37.4
		c-0.6-0.4-1.3-0.2-1.7,0.4c-0.4,0.6-0.2,1.3,0.4,1.7l17.8,11.3c0.2,0.1,0.4,0.2,0.6,0.2c0,0,6.9,0,8.9,0c4.2,0,6.1-4.7,6.1-6.8
		c0-2.2-0.9-3.4-1.7-4.4h12.9c1.1,0,2-0.4,2.7-1.2c0.7,0.8,1.7,1.2,2.8,1.2h12.6c-0.7,1-1.5,2.2-1.5,4.4
		C63.9,46.3,65.2,50.9,70.3,50.9z"/>
</g>
</svg>
