<?xml version="1.0" encoding="utf-8"?>
<!-- Generator: Adobe Illustrator 19.0.0, SVG Export Plug-In . SVG Version: 6.00 Build 0)  -->
<svg version="1.1" id="Capa_1" xmlns="http://www.w3.org/2000/svg" xmlns:xlink="http://www.w3.org/1999/xlink" x="0px" y="0px"
	 viewBox="0 0 50 50" style="enable-background:new 0 0 50 50;" xml:space="preserve">
<style type="text/css">
	.st0{fill:#FFFFFF;}
	.st1{fill:url(#XMLID_4_);}
</style>
<g id="XMLID_2_">
	<circle id="XMLID_1_" class="st0" cx="25" cy="25" r="24.5"/>
	<linearGradient id="XMLID_4_" gradientUnits="userSpaceOnUse" x1="8" y1="25.5" x2="46" y2="25.5">
		<stop  offset="0" style="stop-color:#29ABE2"/>
		<stop  offset="1" style="stop-color:#0071BC"/>
	</linearGradient>
	<path id="XMLID_1925_" class="st1" d="M38.8,19L38.8,19c-2.3,0-4.2,0.6-5.5,2.2l-11.5-6c0-0.2,0.2-0.7,0.2-0.9v-0.1
		c0-3.8-3.3-6.3-7.1-6.3h-0.1C11.1,8,8,10.6,8,14.3v0.1c0,3.8,3.1,7.6,6.8,7.6h0.1c1.9,0,3.7-1.2,4.9-2.5L32,25.3c0,0.1,0,0.1,0,0.2
		l-11.8,5.9C18.9,29.9,17,29,14.9,29h-0.1C11.1,29,8,31.8,8,35.6v0.1c0,3.8,3.1,7.3,6.8,7.3h0.1c3.8,0,7.1-3.6,7.1-7.3v-0.1
		c0,0-0.1-0.1-0.1-0.1l12-5.8c1.3,1.4,3,2.3,4.9,2.3h0.1c3.8,0,7.2-3.3,7.2-7.1v-0.1C46,21.1,42.6,19,38.8,19z"/>
</g>
</svg>
