<?xml version="1.0" encoding="utf-8"?>
<!-- Generator: Adobe Illustrator 19.0.0, SVG Export Plug-In . SVG Version: 6.00 Build 0)  -->
<svg version="1.1" id="Capa_1" xmlns="http://www.w3.org/2000/svg" xmlns:xlink="http://www.w3.org/1999/xlink" x="0px" y="0px"
	 viewBox="0 0 50 50" style="enable-background:new 0 0 50 50;" xml:space="preserve">
<style type="text/css">
	.st0{fill:#001E36;}
	.st1{fill:#31A8FF;}
</style>
<path id="XMLID_431_" class="st0" d="M39.7,49.5H10.3c-5.4,0-9.8-4.4-9.8-9.8V10.3c0-5.4,4.4-9.8,9.8-9.8h29.4
	c5.4,0,9.8,4.4,9.8,9.8v29.4C49.5,45.1,45.1,49.5,39.7,49.5z"/>
<g id="XMLID_9_">
	<path id="XMLID_2_" class="st1" d="M10.7,13c1.5-0.3,3.4-0.5,6.1-0.5c2.9,0,5,0.6,6.4,1.8c1.3,1.1,2.1,2.8,2.1,4.8
		c0,2.1-0.6,3.8-1.8,4.9c-1.6,1.6-4.1,2.4-6.9,2.4c-0.7,0-1.4,0-1.9-0.2v8.2h-3.9V13z M14.7,23.1c0.5,0.2,1.1,0.2,1.9,0.2
		c3,0,4.8-1.5,4.8-4c0-2.4-1.7-3.7-4.4-3.7c-1.1,0-1.9,0.1-2.3,0.2V23.1z"/>
	<path id="XMLID_5_" class="st1" d="M27.8,30.8c0.9,0.5,2.6,1.2,4,1.2c1.7,0,2.5-0.7,2.5-1.8c0-1.1-0.6-1.6-2.6-2.3
		c-3.1-1-4.3-2.7-4.3-4.6c0-2.8,2.3-4.9,5.9-4.9c1.7,0,3.3,0.4,4.2,0.9l-0.8,2.8c-0.6-0.4-1.9-0.9-3.3-0.9c-1.4,0-2.2,0.7-2.2,1.7
		c0,1,0.7,1.5,2.7,2.2c2.9,1,4.2,2.5,4.2,4.8c0,2.9-2.2,4.9-6.4,4.9c-1.9,0-3.6-0.5-4.8-1.1L27.8,30.8z"/>
</g>
</svg>
