<?xml version="1.0" encoding="utf-8"?>
<!-- Generator: Adobe Illustrator 19.0.0, SVG Export Plug-In . SVG Version: 6.00 Build 0)  -->
<svg version="1.1" id="Capa_1" xmlns="http://www.w3.org/2000/svg" xmlns:xlink="http://www.w3.org/1999/xlink" x="0px" y="0px"
	 viewBox="0 0 50 50" style="enable-background:new 0 0 50 50;" xml:space="preserve">
<style type="text/css">
	.st0{fill:#00005B;}
	.st1{fill:#9999FF;}
</style>
<path id="XMLID_11_" class="st0" d="M39.7,49.5H10.3c-5.4,0-9.8-4.4-9.8-9.8V10.3c0-5.4,4.4-9.8,9.8-9.8h29.4c5.4,0,9.8,4.4,9.8,9.8
	v29.4C49.5,45.1,45.1,49.5,39.7,49.5z"/>
<g id="XMLID_6_">
	<path id="XMLID_2_" class="st1" d="M18,26.3c-0.3,0-0.7,0-1,0c-0.3,0-0.7,0-0.9-0.1v8.3h-3.9V13.3h6.1c1,0,1.9,0,2.7,0.1
		c0.8,0.1,1.4,0.2,2,0.4c1.4,0.4,2.6,1.1,3.3,2.1c0.8,1,1.2,2.2,1.2,3.7c0,1-0.2,1.9-0.6,2.8c-0.4,0.8-1,1.5-1.9,2.1s-1.8,1-3,1.3
		C20.9,26.2,19.5,26.3,18,26.3z M16,23c0.2,0,0.5,0.1,0.8,0.1c0.3,0,0.7,0,1.1,0c1,0,1.9-0.1,2.6-0.3c0.7-0.2,1.3-0.4,1.7-0.7
		c0.4-0.3,0.7-0.7,0.9-1.1c0.2-0.4,0.3-0.9,0.3-1.4c0-0.6-0.1-1.2-0.4-1.6c-0.3-0.5-0.8-0.8-1.5-1.1c-0.4-0.1-0.8-0.2-1.4-0.3
		c-0.5-0.1-1.2-0.1-2-0.1H16V23z"/>
	<path id="XMLID_5_" class="st1" d="M40.2,22.1h-0.3c-1.1,0-2.2,0.2-3,0.5c-0.9,0.3-1.5,0.9-2,1.6v10.3h-3.7V19.2h3.1l0.3,2.1h0.1
		c0.4-0.8,1.1-1.4,1.8-1.8c0.8-0.4,1.7-0.7,2.8-0.7c0.4,0,0.7,0,1,0.1V22.1z"/>
</g>
</svg>
