<?xml version="1.0" encoding="utf-8"?>
<!-- Generator: Adobe Illustrator 19.0.0, SVG Export Plug-In . SVG Version: 6.00 Build 0)  -->
<svg version="1.1" id="Capa_1" xmlns="http://www.w3.org/2000/svg" xmlns:xlink="http://www.w3.org/1999/xlink" x="0px" y="0px"
	 viewBox="0 0 50 50" style="enable-background:new 0 0 50 50;" xml:space="preserve">
<style type="text/css">
	.st0{fill:#FFFFFF;}
	.st1{fill:#1C769B;}
	.st2{fill:#2795B7;}
	.st3{fill:#3FB5D1;}
</style>
<g id="XMLID_2_">
	<circle id="XMLID_1_" class="st0" cx="25" cy="25" r="24.5"/>
	<g id="XMLID_1572_">
		<g id="XMLID_1579_">
			<path id="XMLID_1561_" class="st1" d="M0.5,25c0,9.7,5.6,18.1,13.8,22.1L2.6,15C1.3,18.1,0.5,21.4,0.5,25z"/>
			<path id="XMLID_1180_" class="st1" d="M25.4,27.1l-7.4,21.4c2.2,0.6,4.5,1,6.9,1c2.9,0,5.6-0.5,8.1-1.4C33.1,48,33,47.9,33,47.8
				L25.4,27.1z"/>
			<path id="XMLID_865_" class="st1" d="M41.5,23.8c0-3-1.1-5.1-2-6.8c-1.2-2-2.4-3.7-2.4-5.7c0-2.3,1.7-4.4,4.1-4.4
				c0.1,0,0.2,0,0.3,0c-4.4-4-10.2-6.4-16.5-6.4c-8.6,0-16.1,4.4-20.5,11c0.6,0,1.1,0,1.6,0c2.6,0,6.5-0.3,6.5-0.3
				c1.3-0.1,1.5,1.9,0.2,2c0,0-1.3,0.2-2.8,0.2l8.9,26.5L24.3,24l-3.8-10.5c-1.3-0.1-2.6-0.2-2.6-0.2c-1.3-0.1-1.2-2.1,0.2-2
				c0,0,4,0.3,6.5,0.3c2.6,0,6.5-0.3,6.5-0.3c1.3-0.1,1.5,1.9,0.2,2c0,0-1.3,0.2-2.8,0.2l8.9,26.3l2.4-8.2
				C40.7,28.3,41.5,25.9,41.5,23.8z"/>
			<path id="XMLID_763_" class="st1" d="M46.7,15.8c0,2.5-0.5,5.3-1.9,8.8l-7.5,21.6C44.6,41.9,49.5,34,49.5,25
				c0-4.3-1.1-8.3-3-11.8C46.6,14,46.7,14.9,46.7,15.8z"/>
		</g>
		<path id="XMLID_761_" class="st2" d="M37.1,11.3c0-2.3,1.7-4.4,4.1-4.4c0.1,0,0.2,0,0.3,0c-4.4-4-10.2-6.4-16.5-6.4
			c-8.6,0-16.1,4.4-20.5,11c0.6,0,1.1,0,1.6,0c2.6,0,6.5-0.3,6.5-0.3c1.3-0.1,1.5,1.9,0.2,2c0,0-1.3,0.2-2.8,0.2l3.4,10.1
			c2.3,0.8,4.8,1.3,7.4,1.3c1.1,0,2.2-0.1,3.2-0.2l0.2-0.7l-3.8-10.5c-1.3-0.1-2.6-0.2-2.6-0.2c-1.3-0.1-1.2-2.1,0.2-2
			c0,0,4,0.3,6.5,0.3c2.6,0,6.5-0.3,6.5-0.3c1.3-0.1,1.5,1.9,0.2,2c0,0-1.3,0.2-2.8,0.2l2.9,8.8c3-1.6,5.5-3.9,7.4-6.6
			C37.8,14.2,37.1,12.8,37.1,11.3z"/>
		<path id="XMLID_663_" class="st3" d="M25,0.5C17.3,0.5,10.5,4,6,9.6c3.9,0.8,8.3,1.3,12.8,1.3c8.6,0,16.4-1.6,22.3-4.3
			C36.8,2.8,31.2,0.5,25,0.5z"/>
	</g>
</g>
</svg>
