<?xml version="1.0" encoding="utf-8"?>
<!-- Generator: Adobe Illustrator 19.0.0, SVG Export Plug-In . SVG Version: 6.00 Build 0)  -->
<svg version="1.1" id="Capa_1" xmlns="http://www.w3.org/2000/svg" xmlns:xlink="http://www.w3.org/1999/xlink" x="0px" y="0px"
	 viewBox="0 0 70 50" style="enable-background:new 0 0 70 50;" xml:space="preserve">
<style type="text/css">
	.st0{fill:#4D4D4C;}
	.st1{fill:#FFFFFF;}
</style>
<g id="XMLID_1271_">
	<path id="XMLID_1273_" class="st0" d="M3.5,41.1c1.3,4.8,5.5,5.6,5.7,5.8c6.8,1.8,44.8,1.9,51.6,0c4.7-1.4,5.6-5.5,5.7-5.8
		c1.8-9.5,1.9-22-0.1-32.8l0.1,0.5c-1.3-4.8-5.5-5.6-5.7-5.8c-6.7-1.8-44.8-1.9-51.6,0C4.5,4.4,3.7,8.6,3.5,8.9
		C1.6,18.9,1.5,30.4,3.5,41.1z"/>
	<polygon id="XMLID_1272_" class="st1" points="28.5,35 28.5,15 45.7,25 	"/>
</g>
</svg>
