<?xml version="1.0" encoding="utf-8"?>
<!-- Generator: Adobe Illustrator 19.0.0, SVG Export Plug-In . SVG Version: 6.00 Build 0)  -->
<svg version="1.1" id="Capa_1" xmlns="http://www.w3.org/2000/svg" xmlns:xlink="http://www.w3.org/1999/xlink" x="0px" y="0px"
	 viewBox="10 0 70.5 50" style="enable-background:new 10 0 70.5 50;" xml:space="preserve">
<style type="text/css">
	.st0{fill:#FFFFFF;}
	.st1{fill:#E53935;}
</style>
<polygon class="st0" points="37.1,11.4 60.6,25 37.1,38.6 "/>
<path id="XMLID_749_" class="st1" d="M12.2,41.9c1.4,5,5.7,5.9,6,6.1c7.1,1.9,47,1.9,54.2,0c4.9-1.4,5.9-5.8,6-6.1
	c1.9-10,2-23.1-0.1-34.4l0.1,0.6c-1.4-5-5.7-5.9-6-6.1c-7-1.9-47-2-54.2,0c-4.9,1.4-5.9,5.8-6,6.1C10.2,18.6,10.1,30.7,12.2,41.9z
	 M38.4,35.5v-21l18,10.5L38.4,35.5z"/>
</svg>
